<?xml version="1.0" standalone="no"?>
<!DOCTYPE svg PUBLIC "-//W3C//DTD SVG 1.1//EN" "http://www.w3.org/Graphics/SVG/1.1/DTD/svg11.dtd" >
<svg xmlns="http://www.w3.org/2000/svg">
<metadata></metadata>
<defs>
<font id="bingads" horiz-adv-x="1024">
<font-face units-per-em="1024" ascent="960" descent="-64" />
<missing-glyph horiz-adv-x="1024" />
<glyph unicode="&#x20;" horiz-adv-x="512" d="" />
<glyph unicode="&#xe900;" glyph-name="active-new" d="M853.333 448c0-188.513-152.82-341.333-341.333-341.333s-341.333 152.82-341.333 341.333c0 188.513 152.82 341.333 341.333 341.333s341.333-152.82 341.333-341.333z" />
<glyph unicode="&#xe901;" glyph-name="add" d="M401.92 960h220.16v-401.92h401.92v-220.16h-401.92v-401.92h-220.16v401.92h-401.92v220.16h401.92z" />
<glyph unicode="&#xe902;" glyph-name="app-install" d="M666.738 960h-320.853c-65.351 0-118.329-52.978-118.329-118.329v0-787.342c0-65.351 52.978-118.329 118.329-118.329v0h320.853c65.351 0 118.329 52.978 118.329 118.329v787.342c0 65.351-52.978 118.329-118.329 118.329v0zM506.311-9.956c-28.905 0-52.338 23.432-52.338 52.338s23.432 52.338 52.338 52.338c28.905 0 52.338-23.432 52.338-52.338v0c0-28.905-23.432-52.338-52.338-52.338v0zM715.093 157.867h-418.133v661.618h418.133z" />
<glyph unicode="&#xe903;" glyph-name="asc" d="M640 620.8l384-307.2v243.2l-512 403.2-512-403.2v-243.2l384 300.8v-678.4h256v684.8z" />
<glyph unicode="&#xe904;" glyph-name="bell" d="M952.32 146.261c-49.581 51.041-86.575 114.575-105.804 185.421l-0.692 2.995c-27.307 172.715 59.392 492.885-252.587 539.307 0 0 0 3.413 0 5.461 0 45.243-36.677 81.92-81.92 81.92s-81.92-36.677-81.92-81.92v0s0-4.096 0-5.461c-310.613-45.739-224.597-366.592-251.221-538.624-19.809-74.099-56.821-137.879-106.601-189.207l0.105 0.108c-2.276-5.028-3.602-10.902-3.602-17.085 0-19.56 13.268-36.021 31.295-40.874l0.296-0.068c150.187 0 393.216-4.779 409.6-5.461v0c17.749 0 261.461 5.461 409.6 5.461 20.795 2.906 36.627 20.574 36.627 41.94 0 5.802-1.167 11.331-3.28 16.366l0.104-0.279zM512 34.987h-163.84c0-47.104 74.411-98.987 163.84-98.987v0c89.429 0 163.84 51.883 163.84 98.987h-163.84z" />
<glyph unicode="&#xe905;" glyph-name="caret-down" d="M512 128l512 508.16-128 128-384-384-384 387.84-128-128z" />
<glyph unicode="&#xe906;" glyph-name="caret-left" d="M192 448l508.16-512 128 128-384 384 387.84 384-128 128z" />
<glyph unicode="&#xe907;" glyph-name="caret-right" d="M832 448l-508.16-512-128 128 384 384-387.84 384 128 128z" />
<glyph unicode="&#xe908;" glyph-name="caret-up" d="M512 768l-512-508.16 128-128 384 384 384-387.84 128 128z" />
<glyph unicode="&#xe909;" glyph-name="chart-nodata" d="M122.88 384.548v247.772h-122.88v-214.846l122.88-32.926zM122.88 278.536v-301.576h-122.88v334.502l122.88-32.926zM348.16 324.185v594.855h-122.88v-561.93l122.88-32.926zM348.16 218.172v-241.212h-122.88v274.138l122.88-32.926zM573.44 263.821v286.579h-122.88v-253.653l122.88-32.926zM573.44 157.809v-180.849h-122.88v213.774l122.88-32.926zM1024 143.094v489.226h-122.88v-456.3l122.88-32.926zM1024 37.082v-60.122h-122.88v93.047l122.88-32.926zM798.72 203.458v183.102h-122.88v-150.177l122.88-32.926zM798.72 97.445v-120.485h-122.88v153.411l122.88-32.926z" />
<glyph unicode="&#xe90a;" glyph-name="checked-thin" d="M972.8 839.529l-670.419-672.828-243.953 245.158-58.428-58.428 295.755-296.96 58.428 58.428 669.816 673.431-51.2 51.2z" />
<glyph unicode="&#xe90b;" glyph-name="checked" d="M884.053 823.467l-13.653-2.731-460.117-497.664-276.48 252.587h-23.893l-109.909-86.699 1.365-13.653 418.475-402.773 604.16 674.475-9.557 16.384z" />
<glyph unicode="&#xe90c;" glyph-name="close" d="M842.88 960l181.12-181.12-330.88-330.88 330.88-330.88-181.12-181.12-330.88 330.88-330.88-330.88-181.12 181.12 330.88 330.88-330.88 330.88 181.12 181.12 330.88-330.88z" />
<glyph unicode="&#xe90d;" glyph-name="coach" d="M620.756 646.444l-294.135 119.349c-2.613 1.081-5.647 1.709-8.828 1.709s-6.215-0.628-8.985-1.766l0.158 0.057-294.135-119.349c-8.692-3.629-14.69-12.060-14.69-21.892s5.998-18.263 14.534-21.834l0.156-0.058 102.753-40.96v-102.047c0.017-8.476 4.489-15.904 11.199-20.069l0.101-0.058c14.968-9.011 32.412-17.559 50.6-24.616l2.365-0.807c36.62-15.268 79.122-24.418 123.683-25.067l0.256-0.003c44.761 0.116 87.463 8.792 126.602 24.475l-2.309-0.817c20.553 7.865 37.998 16.412 54.549 26.3l-1.584-0.877c6.845 4.227 11.337 11.687 11.337 20.197 0 0.472-0.014 0.941-0.041 1.407l0.003-0.064v92.513l46.963 18.714v-170.196c-0.112-0.866-0.177-1.868-0.177-2.885 0-13.066 10.592-23.658 23.658-23.658s23.658 10.592 23.658 23.658c0 1.017-0.064 2.019-0.189 3.002l0.012-0.117v188.557l32.132 13.065c9.025 3.471 15.313 12.070 15.313 22.137 0 9.934-6.123 18.438-14.801 21.944l-0.159 0.057z" />
<glyph unicode="&#xe90e;" glyph-name="columnchooser" d="M85.333 960h170.667v-1024h-170.667v1024zM426.667 960h170.667v-1024h-170.667v1024zM768 960h170.667v-1024h-170.667v1024z" />
<glyph unicode="&#xe90f;" glyph-name="current-step" d="M0 960h1024v-1024h-1024v1024z" />
<glyph unicode="&#xe910;" glyph-name="decrease" d="M453.404 960v-736.142l-175.787 229.262-78.507-98.418 312.889-404.48 312.889 399.36-77.938 98.987-176.356-225.849v737.28h-117.191z" />
<glyph unicode="&#xe911;" glyph-name="deleted-new" d="M170.667 576h682.667v-256h-682.667v256z" />
<glyph unicode="&#xe912;" glyph-name="des" d="M384 275.2l-384 307.2v-243.2l512-403.2 512 403.2v243.2l-384-300.8v678.4h-256v-684.8z" />
<glyph unicode="&#xe913;" glyph-name="dot" d="M1024 448c0-282.77-229.23-512-512-512s-512 229.23-512 512c0 282.77 229.23 512 512 512s512-229.23 512-512z" />
<glyph unicode="&#xe914;" glyph-name="download-round" d="M743.424 262.144v-84.992h-462.336v84.992h462.336zM609.28 530.944v187.904h-194.56v-187.904h-111.616l208.896-209.408 209.408 209.408h-112.128zM512 857.6c226.216 0 409.6-183.384 409.6-409.6s-183.384-409.6-409.6-409.6c-226.216 0-409.6 183.384-409.6 409.6v0c0 226.216 183.384 409.6 409.6 409.6v0zM512 960c-282.77 0-512-229.23-512-512s229.23-512 512-512c282.77 0 512 229.23 512 512v0c0 282.77-229.23 512-512 512v0 0z" />
<glyph unicode="&#xe915;" glyph-name="download" d="M128 106.24h768v-170.24h-768v170.24zM414.080 448v512h204.8v-512l277.12 232.96v-200.96l-384-296.96-384 304v183.040z" />
<glyph unicode="&#xe916;" glyph-name="dsa" d="M109.406 581.12h287.798v-82.459h-287.798v82.459zM109.406 457.701h616.556v-164.379h-616.556v164.379zM109.406 252.362h616.556v-123.419h-616.556v123.419z" />
<glyph unicode="&#xe917;" glyph-name="edit" d="M849.92 568.832l46.080 46.080c15.854 15.846 25.661 37.741 25.661 61.926 0 21.522-7.766 41.23-20.648 56.476l0.107-0.13-5.12 5.12-97.28 97.792c-14.959 13.147-34.703 21.169-56.32 21.169s-41.361-8.022-56.416-21.252l0.096 0.083-5.12-5.12-46.080-40.96zM130.048 286.208l441.344 443.904 217.6-218.624-441.856-443.904-217.088 218.624zM102.4 38.4h158.72l-158.72 154.624v-154.624z" />
<glyph unicode="&#xe918;" glyph-name="error" d="M512 960c-282.77 0-512-229.23-512-512s229.23-512 512-512c282.77 0 512 229.23 512 512v0c0 282.77-229.23 512-512 512v0zM771.84 284.16l-89.6-92.16-167.040 167.040-167.040-167.040-92.16 92.16 169.6 167.040-169.6 167.040 89.6 89.6 167.040-167.040 167.040 167.040 89.6-89.6-164.48-167.040z" />
<glyph unicode="&#xe919;" glyph-name="filter" d="M0 960l424.32-602.88v-421.12h167.68v426.88l432 597.12z" />
<glyph unicode="&#xe91a;" glyph-name="gear" d="M581.12 448c0-38.174-30.946-69.12-69.12-69.12s-69.12 30.946-69.12 69.12c0 38.174 30.946 69.12 69.12 69.12s69.12-30.946 69.12-69.12zM819.2 437.76l102.4 46.080-30.72 133.12-117.76-10.24c-12.834 21.266-26.355 39.675-41.343 56.765l0.383-0.445 40.96 107.52-117.76 71.68-66.56-97.28c-24.39 5.925-52.563 9.624-81.496 10.233l-0.424 0.007-40.96 102.4-138.24-35.84 15.36-112.64c-19.476-11.753-36.192-23.578-52.001-36.473l0.801 0.633-102.4 40.96-66.56-117.76 87.040-71.68c-5.963-21.345-9.664-45.955-10.234-71.337l-0.006-0.343-97.28-40.96 30.72-133.12 107.52 10.24c12.563-23.66 27.922-43.919 46.008-61.371l0.072-0.069-40.96-97.28 117.76-71.68 71.68 87.040c25.6-5.12 46.080-5.12 71.68-10.24l40.96-97.28 133.12 30.72-10.24 112.64c21.622 11.252 40.177 24.905 56.33 40.97l-0.010-0.010 102.4-40.96 71.68 117.76-92.16 71.68c5.575 19.683 9.251 42.474 10.22 65.963l0.020 0.597zM512 256c-106.039 0-192 85.961-192 192s85.961 192 192 192c106.039 0 192-85.961 192-192v0c0-106.039-85.961-192-192-192v0z" />
<glyph unicode="&#xe91b;" glyph-name="graph" d="M163.157 366.763h140.629v-350.208h-140.629v350.208zM365.909 507.392h140.629v-490.837h-140.629v490.837zM572.757 366.763h140.629v-350.208h-140.629v350.208zM775.509 507.392h140.629v-490.837h-140.629v490.837z" />
<glyph unicode="&#xe91c;" d="M512 960c-0.003 0-0.007 0-0.011 0-12.065 0-21.845-9.78-21.845-21.845 0-0.24 0.004-0.479 0.012-0.717l-0.001 0.035v-1001.472h43.691v1001.472c0.007 0.203 0.011 0.443 0.011 0.683 0 12.065-9.78 21.845-21.845 21.845-0.004 0-0.008 0-0.011 0h0.001z" />
<glyph unicode="&#xe91d;" d="M854.699 848.725h-638.293v-245.077h638.293l137.216 122.88-137.216 122.197z" />
<glyph unicode="&#xe91e;" d="M172.715 209.749h638.293v244.395h-638.293l-137.216-122.197 137.216-122.197z" />
<glyph unicode="&#xe91f;" glyph-name="handler" d="M192 960h275.84v-281.6h-275.84v281.6zM556.16 960h275.84v-281.6h-275.84v281.6zM192 588.8h275.84v-281.6h-275.84v281.6zM556.16 588.8h275.84v-281.6h-275.84v281.6zM192 217.6h275.84v-281.6h-275.84v281.6zM556.16 217.6h275.84v-281.6h-275.84v281.6z" />
<glyph unicode="&#xe920;" glyph-name="help" d="M512 857.6c-226.216 0-409.6-183.384-409.6-409.6s183.384-409.6 409.6-409.6c226.216 0 409.6 183.384 409.6 409.6v0c0 226.216-183.384 409.6-409.6 409.6v0zM524.8 168.448c-31.952 0.001-57.854 25.904-57.854 57.856s25.903 57.856 57.856 57.856c31.953 0 57.856-25.903 57.856-57.856 0-0.18-0.001-0.36-0.002-0.539v0.027c0-0.001 0-0.001 0-0.002 0-31.67-25.674-57.344-57.344-57.344-0.18 0-0.36 0.001-0.539 0.002h0.027zM708.608 529.92c-6.39-32.194-21.622-60.111-43.033-81.946l0.025 0.026c-24.855-26.18-57.745-44.516-94.708-51.048l-1.036-0.152q0-18.432 0-37.888t0-31.744h-109.056v76.8c1.253 8.597 3.765 16.358 7.367 23.473l-0.199-0.433c16.896 41.472 87.552 27.648 124.928 77.824 8.44 10.89 14.544 24.019 17.315 38.335l0.093 0.577c0.262 2.461 0.412 5.317 0.412 8.207 0 15.913-4.537 30.767-12.389 43.337l0.201-0.345c-20.887 23.105-50.969 37.561-84.426 37.561-29.919 0-57.138-11.56-77.434-30.456l0.069 0.063c-13.814-17.299-22.167-39.488-22.167-63.628 0-4.1 0.241-8.144 0.71-12.118l-0.046 0.482h-98.304c-1.982 9.065-3.117 19.478-3.117 30.156 0 18.981 3.586 37.125 10.119 53.79l-0.346-1.002c40.448 99.328 211.968 153.6 311.296 82.432 45.387-32.611 74.601-85.251 74.601-144.715 0-6.194-0.317-12.315-0.936-18.345l0.063 0.757z" />
<glyph unicode="&#xe921;" glyph-name="import" d="M272.707 840.893l221.507-277.558h-494.215v-184.859h489.903l-217.196-277.019h175.158l291.032 369.718-291.032 369.718h-175.158zM831.596 933.053h138.509v-923.756h-138.509v923.756z" />
<glyph unicode="&#xe922;" glyph-name="increase" d="M570.596-49.778v736.142l176.356-229.262 77.938 98.418-312.889 404.48-312.889-399.36 78.507-98.987 175.787 225.849v-737.28h117.191z" />
<glyph unicode="&#xe923;" glyph-name="info" d="M512 960c-282.77 0-512-229.23-512-512s229.23-512 512-512c282.77 0 512 229.23 512 512v0c0 282.77-229.23 512-512 512v0zM598.4 138.88h-172.8v404.48h173.44v-404.48zM598.4 608.64h-172.8v148.48h173.44v-147.84z" />
<glyph unicode="&#xe924;" glyph-name="landscape" d="M0 960h1024v-1024h-1024v1024z" />
<glyph unicode="&#xe925;" glyph-name="left-thin" d="M1024 513.752h-786.324l198.872 196.716-85.693 87.848-350.855-350.316 346.543-350.316 85.693 87.309-195.638 197.255h787.402v131.503z" />
<glyph unicode="&#xe926;" glyph-name="left" d="M339.2 576l307.2 384h-243.2l-403.2-512 403.2-512h243.2l-300.8 384h678.4v256h-684.8z" />
<glyph unicode="&#xe927;" glyph-name="listbox-remove" d="M0 448l441.6 512 108.8-128-332.8-384 332.8-384-108.8-128zM473.6 448l441.6 512 108.8-128-332.8-384 332.8-384-108.8-128z" />
<glyph unicode="&#xe928;" glyph-name="livechat" d="M781.824 524.8v128c-1.579 99.311-82.456 179.212-181.994 179.212-0.728 0-1.454-0.004-2.18-0.013l0.11 0.001h-413.696c-0.615 0.007-1.342 0.012-2.070 0.012-99.539 0-180.415-79.901-181.993-179.063l-0.002-0.148v-128c1.579-99.311 82.456-179.212 181.994-179.212 0.728 0 1.454 0.004 2.18 0.013l-0.11-0.001h51.2v-153.6l161.536 153.6h200.96c0.615-0.007 1.342-0.012 2.070-0.012 99.539 0 180.415 79.901 181.993 179.063l0.002 0.148zM892.416 593.664h-84.224v-94.464c-1.579-99.311-82.456-179.212-181.994-179.212-0.728 0-1.454 0.004-2.18 0.013l0.11-0.001h-214.528c10.427-62.171 63.699-109.005 127.967-109.312h174.625l151.808-146.688v146.688h28.416c0.461-0.006 1.006-0.009 1.552-0.009 71.107 0 128.884 57.068 130.031 127.901l0.001 0.108v128c-1.713 70.494-59.265 126.986-130.012 126.986-0.553 0-1.105-0.003-1.656-0.010l0.084 0.001z" />
<glyph unicode="&#xe929;" glyph-name="logo" d="M261.447 369.566v156.868h44.301c13.799 0 23.966-3.631 31.955-10.167s11.62-15.251 11.62-26.145c0-8.715-2.179-16.704-7.262-23.24s-11.62-10.894-19.609-13.799v-0.726c10.894-1.452 18.882-5.084 25.418-11.62s9.441-15.251 9.441-26.145c0-13.072-5.084-23.966-14.525-32.681-9.441-7.989-21.787-12.346-36.312-12.346h-45.027zM279.603 509.73v-50.837h18.882c10.167 0 18.156 2.179 23.966 7.262s8.715 11.62 8.715 20.335c0 15.251-10.167 22.513-29.776 22.513h-21.787zM279.603 442.916v-56.647h25.418c10.894 0 18.882 2.905 25.418 7.989 5.81 5.084 8.715 12.346 8.715 21.061 0 18.156-12.346 27.597-37.765 27.597h-21.787zM402.338 518.445c0 2.905-1.452 5.81-3.631 7.989s-5.084 3.631-8.715 3.631c-3.631 0-5.81-1.452-7.989-3.631s-3.631-5.084-3.631-7.989c0-3.631 1.452-6.536 3.631-8.715s5.084-2.905 7.989-2.905c2.905 0 5.81 1.452 7.989 3.631 2.905 1.452 4.357 4.357 4.357 7.989zM399.433 480.681h-18.156v-111.115h18.156v111.115zM521.441 437.833c0 14.525-2.905 26.145-9.441 34.133s-15.977 11.62-28.323 11.62c-15.977 0-28.323-7.262-36.312-21.061h-0.726v18.156h-18.156v-111.115h18.156v63.183c0 10.167 2.905 18.882 8.715 25.418s13.072 10.167 21.787 10.167c17.43 0 26.145-11.62 26.145-35.586v-63.183h18.156v68.267zM647.081 378.281c0-40.67-19.609-61.004-58.826-61.004-13.799 0-25.418 2.905-36.312 7.989l4.357 15.251c10.894-5.81 19.609-7.989 31.228-7.989 27.597 0 41.396 14.525 41.396 43.574v12.346h-0.726c-8.715-14.525-21.061-21.061-38.491-21.061-8.715 0-16.704 2.179-23.966 6.536s-12.346 10.894-15.977 18.882c-3.631 7.989-5.81 18.156-5.81 29.050 0 18.882 4.357 34.133 13.799 45.027s21.787 16.704 37.038 16.704c15.251 0 26.145-5.81 33.407-18.156h0.726v15.251h18.156v-102.4zM629.651 419.677v16.704c0 8.715-2.905 16.704-9.441 22.513-5.81 6.536-13.799 9.441-21.787 9.441-10.894 0-19.609-4.357-26.145-12.346s-9.441-18.882-9.441-33.407c0-12.346 2.905-21.787 8.715-29.776 5.81-7.262 13.799-10.894 23.966-10.894s18.156 3.631 24.692 10.894c5.81 7.262 9.441 15.977 9.441 26.871zM66.814 492.301l23.24-56.647 35.586-16.704-73.35-42.122v183.739l-52.289 18.156v-232.397l52.289-29.050 130.723 75.529v58.826zM792.329 368.84v22.513h-0.726c-3.631-7.989-8.715-13.799-15.977-18.156s-14.525-6.536-22.513-6.536c-10.167 0-18.882 2.905-25.418 8.715s-8.715 13.072-8.715 22.513c0 19.609 13.072 31.228 39.217 35.586l34.86 5.084c0 23.966-8.715 36.312-26.871 36.312-12.346 0-24.692-5.084-36.312-15.251v12.346c4.357 2.905 10.167 5.81 17.43 8.715 7.262 2.179 13.799 3.631 19.609 3.631 11.62 0 20.335-3.631 26.871-10.894s9.441-17.43 9.441-31.228v-73.35h-10.894zM729.146 398.616c0-7.262 2.179-12.346 6.536-16.704s10.894-6.536 18.156-6.536c10.894 0 19.609 4.357 26.871 12.346s10.894 18.156 10.894 31.228v10.894l-31.228-4.357c-12.346-2.179-21.061-5.084-25.418-8.715-2.905-4.357-5.81-10.167-5.81-18.156zM915.79 368.84v20.335h-0.726c-3.631-7.262-9.441-13.072-16.704-16.704-7.262-4.357-15.251-6.536-23.966-6.536-13.799 0-25.418 5.084-34.133 15.251s-13.072 23.966-13.072 41.396c0 11.62 2.179 21.787 6.536 31.228s10.167 16.704 18.156 21.787c7.989 5.084 16.704 7.989 26.871 7.989 16.704 0 29.050-7.262 36.312-21.061h0.726v72.624h10.167v-166.309h-10.167zM915.79 437.106c0 10.894-3.631 19.609-10.167 26.871s-15.977 10.894-26.145 10.894c-11.62 0-21.787-4.357-29.050-13.799s-11.62-21.787-11.62-37.038c0-14.525 3.631-26.871 10.167-35.586s15.977-13.072 26.871-13.072c12.346 0 21.787 3.631 29.050 11.62 7.262 7.262 10.894 17.43 10.894 29.776v20.335zM956.46 373.923v12.346c3.631-2.905 7.989-5.084 13.072-7.262 5.81-2.179 10.167-2.905 14.525-2.905 17.43 0 26.145 7.262 26.145 21.787 0 4.357-1.452 8.715-5.084 12.346s-10.167 7.262-19.609 11.62c-10.167 4.357-17.43 8.715-22.513 13.799-4.357 5.084-7.262 10.894-7.262 18.882 0 8.715 3.631 15.977 10.167 21.787 7.262 5.81 15.251 8.715 26.145 8.715 9.441 0 18.156-2.179 24.692-5.81v-11.62c-8.715 5.084-16.704 7.989-26.145 7.989-7.262 0-13.072-2.179-18.156-5.81-4.357-3.631-6.536-8.715-6.536-15.251 0-4.357 0.726-7.989 2.179-10.167s3.631-5.084 7.262-7.262c2.905-2.179 7.989-4.357 14.525-7.262 12.346-5.084 20.335-10.167 24.692-14.525s6.536-10.167 6.536-17.43c0-9.441-3.631-16.704-10.167-22.513s-15.977-8.715-27.597-8.715c-10.894 0-19.609 2.179-26.871 7.262z" />
<glyph unicode="&#xe92a;" glyph-name="map-cross" d="M825.856 544.768c0 173.338-140.518 313.856-313.856 313.856s-313.856-140.518-313.856-313.856v0s0-4.096 0-6.656v0s0-4.608 0-6.656c1.963-12.858 4.284-23.763 7.156-34.441l-0.5 2.185v-11.264c0-8.192 0-16.384 4.608-24.576 54.784-220.16 302.592-424.96 302.592-424.96s240.64 191.488 299.008 417.28c6.917 22.783 11.342 49.087 12.274 76.277l0.014 0.523s0 4.096 0 5.632v0s2.56 4.608 2.56 6.656zM633.344 471.040l-41.472-41.472-79.872 76.8-77.312-76.8-38.912 41.472 77.312 76.8-77.312 76.8 41.472 41.472 74.752-76.8 77.312 76.8 41.472-41.472-77.312-76.8z" />
<glyph unicode="&#xe92b;" glyph-name="map-dot" d="M825.856 545.28c0 173.338-140.518 313.856-313.856 313.856s-313.856-140.518-313.856-313.856v0c0-2.56 0-5.12 0-7.68v0c0-2.56 0-5.632 0-8.192s0-19.968 3.072-29.696 0-10.24 0-15.36l3.584-8.192c51.2-227.328 307.2-437.76 307.2-437.76s250.368 199.168 302.592 430.592c4.608 6.144 4.608 11.776 4.608 17.92v6.656c1.92 10.537 3.382 23.209 4.063 36.088l0.033 0.776s0 4.608 0 7.168v0c2.048 2.56 2.56 5.12 2.56 7.68zM512 418.816c-69.624 0.291-125.952 56.799-125.952 126.463 0 69.844 56.62 126.464 126.464 126.464s126.463-56.619 126.464-126.463v0c-0.291-69.906-57.028-126.464-126.975-126.464 0 0-0.001 0-0.001 0v0z" />
<glyph unicode="&#xe92c;" glyph-name="map-tick" d="M825.344 540.16s0 0 0 3.584c0.005 0.673 0.008 1.47 0.008 2.267 0 173.338-140.518 313.856-313.856 313.856s-313.856-140.518-313.856-313.856c0-39.051 7.132-76.435 20.164-110.923l-0.716 2.16c67.584-212.48 294.912-398.848 294.912-398.848s235.008 187.392 297.472 409.6c7.711 23.964 12.683 51.638 13.806 80.301l0.018 0.595c0 3.584 0 6.656 0 10.24v0zM483.84 427.52l-125.44 122.88 32.768 26.112h7.68l82.432-73.728 137.216 150.016h4.096l38.912-17.92 4.096-5.12z" />
<glyph unicode="&#xe92d;" glyph-name="microsoft-logo_rgb_c-gray" d="M196.197 533.277v-181.298h-31.475v142.017h-0.504l-56.278-142.101h-20.984l-57.579 142.101h-0.294v-142.101h-29.083v181.382h45.115l52.207-134.295h0.755l54.893 134.295zM222.426 519.512c-0.001 0.049-0.001 0.107-0.001 0.165 0 4.918 2.115 9.342 5.485 12.413l0.013 0.012c3.322 3.171 7.832 5.122 12.798 5.122 0.104 0 0.208-0.001 0.311-0.003h-0.016c0.165 0.005 0.36 0.008 0.555 0.008 5 0 9.532-2.006 12.835-5.257l-0.002 0.002c3.286-3.113 5.331-7.507 5.331-12.379 0-0.074 0-0.148-0.001-0.222v0.011c0.003-0.11 0.004-0.239 0.004-0.368 0-4.848-2.102-9.205-5.445-12.209l-0.015-0.013c-3.347-3.148-7.868-5.083-12.84-5.083-0.148 0-0.296 0.002-0.444 0.005h0.022c-0.115-0.003-0.25-0.004-0.386-0.004-4.951 0-9.445 1.953-12.756 5.13l0.006-0.006c-3.309 3.034-5.376 7.377-5.376 12.202 0 0.136 0.002 0.273 0.005 0.408v-0.020zM256 481.951v-130.098h-30.3v130.098zM349.125 374.138c5.448 0.134 10.592 1.278 15.303 3.251l-0.279-0.104c5.802 2.261 10.815 5.086 15.353 8.509l-0.16-0.116v-28.664c-4.839-2.749-10.447-4.935-16.379-6.26l-0.408-0.077c-5.887-1.363-12.648-2.144-19.591-2.144-0.298 0-0.595 0.001-0.893 0.004h0.045c-0.767-0.034-1.668-0.054-2.572-0.054-33.23 0-60.336 26.219-61.759 59.099l-0.004 0.129q0 2.728 0 5.498c-0.034 0.833-0.053 1.812-0.053 2.795 0 18.761 6.971 35.893 18.463 48.949l-0.071-0.082q18.34 20.312 51.955 20.27c6.183-0.024 12.167-0.834 17.87-2.335l-0.495 0.111c5.292-1.218 9.954-2.978 14.291-5.272l-0.316 0.152v-29.377c-4.129 3.118-8.846 5.811-13.892 7.865l-0.419 0.151c-4.479 1.794-9.669 2.84-15.103 2.854h-0.006c-0.511 0.024-1.109 0.038-1.711 0.038-10.865 0-20.675-4.517-27.654-11.776l-0.012-0.013c-6.918-7.776-11.144-18.080-11.144-29.371 0-0.844 0.024-1.682 0.070-2.514l-0.005 0.115c-0.048-0.756-0.076-1.639-0.076-2.528 0-10.851 4.090-20.747 10.812-28.231l-0.034 0.039c6.944-6.779 16.449-10.96 26.932-10.96 0.683 0 1.362 0.018 2.036 0.053l-0.094-0.004zM466.633 484.008c0.104 0.001 0.227 0.002 0.35 0.002 2.203 0 4.363-0.184 6.466-0.537l-0.227 0.032c1.878-0.299 3.545-0.737 5.143-1.32l-0.191 0.061v-30.972c-2.015 1.376-4.339 2.517-6.82 3.306l-0.189 0.052c-3.119 1.017-6.708 1.603-10.433 1.603-0.271 0-0.542-0.003-0.812-0.009l0.040 0.001c-0.006 0-0.014 0-0.021 0-7.737 0-14.61-3.699-18.947-9.425l-0.043-0.059q-7.764-9.485-7.764-29.377v-65.469h-30.888v130.098h30.762v-20.48h0.504c2.534 6.883 6.892 12.594 12.491 16.717l0.099 0.070c5.336 3.591 11.907 5.732 18.979 5.732 0.454 0 0.906-0.009 1.356-0.026l-0.065 0.002zM479.811 414.972q0 32.231 18.214 51.074t50.57 18.843q30.468 0 47.591-18.13t17.123-48.976q0-31.601-18.214-50.361t-49.773-18.801q-30.216 0-47.969 17.752t-17.794 48.598zM511.664 415.979q0-20.354 9.233-31.098c6.043-6.65 14.726-10.808 24.38-10.808 0.724 0 1.443 0.023 2.156 0.070l-0.097-0.005c0.598-0.041 1.296-0.065 2-0.065 9.362 0 17.748 4.176 23.397 10.767l0.035 0.042q8.729 10.744 8.729 31.853t-9.023 31.685c-5.784 6.597-14.229 10.739-23.641 10.739-0.541 0-1.079-0.014-1.614-0.041l0.075 0.003c-0.512 0.029-1.11 0.046-1.713 0.046-9.745 0-18.474-4.347-24.354-11.208l-0.036-0.043q-9.778-11.163-9.778-31.937zM658.885 447.706c-0.009-0.185-0.015-0.402-0.015-0.62 0-3.799 1.618-7.221 4.203-9.612l0.009-0.008c5.309-3.807 11.421-6.991 17.964-9.25l0.501-0.151c10.043-3.488 18.579-9.118 25.402-16.376l0.031-0.033c4.564-5.76 7.321-13.132 7.321-21.148 0-0.4-0.007-0.798-0.020-1.195l0.002 0.058c0.008-0.285 0.013-0.62 0.013-0.956 0-11.562-5.501-21.839-14.028-28.358l-0.086-0.063q-13.975-11.289-38.022-11.289c-6.373 0.077-12.536 0.791-18.483 2.083l0.605-0.11c-6.347 1.167-11.976 2.898-17.305 5.193l0.518-0.198v30.090c5.173-3.651 11.107-6.77 17.436-9.066l0.526-0.167c5.169-2.019 11.148-3.254 17.397-3.398l0.061-0.001c0.618-0.044 1.34-0.069 2.067-0.069 4.813 0 9.371 1.093 13.438 3.045l-0.187-0.081c2.988 1.864 4.947 5.133 4.947 8.86 0 0.308-0.013 0.614-0.040 0.915l0.003-0.039c0 0.033 0 0.072 0 0.111 0 4.279-1.989 8.094-5.093 10.57l-0.027 0.021c-5.576 4.055-11.989 7.462-18.859 9.907l-0.53 0.165c-9.498 3.458-17.55 8.917-23.966 15.904l-0.039 0.044c-4.443 5.792-7.12 13.142-7.12 21.116 0 0.485 0.010 0.967 0.029 1.447l-0.002-0.069c-0.003 0.183-0.005 0.4-0.005 0.617 0 11.484 5.446 21.697 13.897 28.195l0.084 0.062c9.258 7.105 21.007 11.386 33.756 11.386 0.866 0 1.727-0.020 2.583-0.059l-0.121 0.004c5.441-0.061 10.714-0.608 15.828-1.6l-0.552 0.089c5.33-0.878 10.084-2.235 14.596-4.065l-0.453 0.163v-29.083c-3.988 2.709-8.557 5.085-13.399 6.902l-0.451 0.148c-4.776 1.809-10.297 2.869-16.062 2.896h-0.012c-0.412 0.026-0.894 0.041-1.379 0.041-4.519 0-8.74-1.28-12.318-3.498l0.1 0.058c-3.026-1.954-5.001-5.31-5.001-9.126 0-0.141 0.003-0.281 0.008-0.42l-0.001 0.020zM727.795 414.972q0 32.231 18.214 51.074t50.529 18.843q30.468 0 47.591-18.13t16.997-49.018q0-31.601-18.214-50.361t-49.731-18.759q-30.216 0-47.969 17.752t-17.752 48.598zM759.649 415.979q0-20.354 9.233-31.098c6.043-6.65 14.726-10.808 24.38-10.808 0.724 0 1.443 0.023 2.156 0.070l-0.097-0.005c0.598-0.041 1.296-0.065 2-0.065 9.362 0 17.748 4.176 23.397 10.767l0.035 0.042q8.729 10.744 8.729 31.853t-9.023 31.685c-5.784 6.597-14.229 10.739-23.641 10.739-0.541 0-1.079-0.014-1.614-0.041l0.075 0.003c-0.608 0.041-1.318 0.065-2.033 0.065-9.753 0-18.489-4.355-24.37-11.226l-0.037-0.044q-9.443-11.163-9.443-31.937zM962.812 456.813h-45.87v-104.918h-30.972v104.918h-21.739v25.18h21.739v17.92c-0.017 0.467-0.027 1.016-0.027 1.567 0 12.52 5.115 23.846 13.368 32.002l0.004 0.004c8.405 8.121 19.867 13.125 32.497 13.125 0.6 0 1.197-0.011 1.792-0.034l-0.086 0.003c0.127 0.001 0.276 0.001 0.426 0.001 3.326 0 6.603-0.214 9.816-0.629l-0.38 0.040c2.845-0.358 5.413-0.961 7.871-1.803l-0.275 0.082v-26.439c-1.502 0.79-3.268 1.517-5.105 2.081l-0.224 0.059c-2.468 0.801-5.308 1.263-8.256 1.263-0.166 0-0.332-0.001-0.498-0.004h0.025c-0.346 0.023-0.75 0.036-1.157 0.036-5.405 0-10.267-2.322-13.644-6.023l-0.013-0.014c-3.268-4.359-5.233-9.859-5.233-15.817 0-0.681 0.026-1.356 0.076-2.024l-0.005 0.089v-15.696h45.576v29.377l30.72 9.359v-38.568h30.972v-25.18h-30.972v-60.769c-0.080-0.761-0.126-1.645-0.126-2.539 0-5.311 1.615-10.246 4.381-14.339l-0.058 0.091c3.143-3.101 7.463-5.016 12.23-5.016 0.526 0 1.046 0.023 1.56 0.069l-0.066-0.005c2.312 0.084 4.493 0.538 6.52 1.306l-0.141-0.047c2.469 0.878 4.603 1.955 6.575 3.259l-0.112-0.069v-25.18c-2.794-1.366-6.036-2.418-9.441-2.992l-0.211-0.029c-4.009-0.873-8.616-1.377-13.34-1.385h-0.006q-19.347 0-28.999 10.282t-9.652 31.056z" />
<glyph unicode="&#xe92e;" glyph-name="opportunity" d="M716.8 461.824s0 4.096 0 6.144v0c-8.191 103.784-94.426 184.899-199.607 184.899-1.826 0-3.646-0.024-5.461-0.073l0.268 0.006c-1.547 0.043-3.367 0.067-5.193 0.067-105.181 0-191.416-81.115-199.563-184.202l-0.044-0.697c-0.196-3.571-0.308-7.75-0.308-11.956 0-55.407 19.429-106.277 51.845-146.168l-0.337 0.428c10.926-14.728 21.614-31.468 31.129-48.939l1.127-2.261c2.216-4.145 4.624-9.371 6.766-14.733l0.402-1.139c6.932-17.41 11.203-37.565 11.771-58.643l0.005-0.237c2.3-6.338 6.616-11.481 12.158-14.777l0.13-0.071c2.789-1.951 6.023-3.525 9.493-4.548l0.235-0.060h158.72c12.045 0.545 21.886 9.335 24.039 20.833l0.025 0.159c-0.001 0.232-0.002 0.506-0.002 0.781 0 46.165 17.71 88.193 46.706 119.662l-0.112-0.123c29.595 33.932 49.165 77.303 53.691 125.056l0.069 0.896c0.285 3.906 0.447 8.462 0.447 13.056s-0.162 9.15-0.481 13.663l0.034-0.607s2.048 2.048 2.048 3.584zM582.656 116.224h-141.312c-0.002 0-0.004 0-0.006 0-11.979 0-21.724-9.567-22.010-21.477l-0.001-0.027v-12.288c0.286-11.937 10.031-21.504 22.010-21.504 0.002 0 0.004 0 0.006 0h11.264c0.564-12.559 10.882-22.528 23.53-22.528 0.008 0 0.016 0 0.023 0h71.679c0.002 0 0.004 0 0.006 0 12.827 0 23.26 10.255 23.546 23.013v0.027h11.264c0.002 0 0.004 0 0.006 0 11.979 0 21.724 9.567 22.010 21.477l0.001 0.027v11.776c-0.286 11.937-10.031 21.504-22.010 21.504-0.002 0-0.004 0-0.006 0v0zM142.848 555.52h74.24c22.339 0 40.448-18.109 40.448-40.448v-0.512c0-22.339-18.109-40.448-40.448-40.448h-74.24c-22.339 0-40.448 18.109-40.448 40.448v0.512c0 22.339 18.109 40.448 40.448 40.448zM806.912 555.52h74.24c22.339 0 40.448-18.109 40.448-40.448v-0.512c0-22.339-18.109-40.448-40.448-40.448h-74.24c-22.339 0-40.448 18.109-40.448 40.448v0.512c0 22.339 18.109 40.448 40.448 40.448zM470.016 750.080v65.536c0 23.187 18.797 41.984 41.984 41.984h0.512c23.187 0 41.984-18.797 41.984-41.984v-65.536c0-23.187-18.797-41.984-41.984-41.984h-0.512c-23.187 0-41.984 18.797-41.984 41.984zM307.2 765.952l51.2-48.128c7.648-7.289 12.403-17.553 12.403-28.928s-4.756-21.639-12.387-28.913l-0.016-0.015c-7.754-7.252-18.205-11.706-29.696-11.706s-21.942 4.454-29.721 11.729l0.025-0.023-51.2 48.128c-7.489 7.268-12.137 17.427-12.137 28.672s4.648 21.404 12.127 28.662l0.010 0.010c7.788 7.407 18.347 11.964 29.97 11.964 11.36 0 21.703-4.352 29.453-11.48l-0.031 0.028zM716.8 768.512l-51.2-48.128c-7.489-7.268-12.137-17.427-12.137-28.672s4.648-21.404 12.127-28.662l0.010-0.010c7.754-7.252 18.205-11.706 29.696-11.706s21.942 4.454 29.721 11.729l-0.025-0.023 51.2 48.128c7.489 7.268 12.137 17.427 12.137 28.672s-4.648 21.404-12.127 28.662l-0.010 0.010c-7.754 7.252-18.205 11.706-29.696 11.706s-21.942-4.454-29.721-11.729l0.025 0.023z" />
<glyph unicode="&#xe92f;" glyph-name="paused-new" d="M170.667 789.333h256v-682.667h-256v682.667zM597.333 789.333h256v-682.667h-256v682.667z" />
<glyph unicode="&#xe930;" glyph-name="phone-call" d="M97.849 789.333c5.929 21.686 13.696 40.585 23.439 58.241l-0.684-1.352c14.718 27.702 33.77 51.112 56.532 70.25l0.356 0.292c21.618 10.24 81.92 58.596 138.24 38.684 44.148-20.797 75.030-63.256 79.044-113.295l0.031-0.483c11.378-63.147 32.996-129.138 5.689-184.889-12.368-27.655-33.39-49.597-59.569-62.811l-0.733-0.335c-13.653-8.533-21.618-10.809-26.738-21.049s0-29.013 18.773-72.818l25.6-56.889c29.033-57.314 64.735-106.457 106.993-149.091l-0.042 0.042c40.391-40.391 105.813-105.244 145.636-87.609 17.067 7.964 18.773 26.169 62.009 56.889 9.040 8.541 20.121 15.022 32.428 18.631l0.567 0.143c3.107 0.404 6.701 0.634 10.348 0.634 22.972 0 43.81-9.138 59.076-23.978l-0.020 0.019c20.48-17.067 44.373-32.427 64.284-51.2 38.116-35.84 102.4-56.889 84.764-127.431-17.993-68.11-72.646-119.912-141.060-133.496l-1.162-0.192c-22.26-7.794-47.924-12.296-74.638-12.296-31.323 0-61.199 6.189-88.475 17.411l1.549-0.564c-124.021 57.903-228.895 137.11-314.273 233.921l-0.891 1.030c-68.846 81.403-126.309 175.398-168.133 277.458l-2.534 6.987c-29.955 72.849-47.824 157.35-48.92 245.891l-0.004 0.438c1.735 26.639 6.193 51.483 13.128 75.27l-0.613-2.452z" />
<glyph unicode="&#xe931;" glyph-name="play" d="M528.64 832c212.077 0 384-171.923 384-384s-171.923-384-384-384c-212.077 0-384 171.923-384 384v0c0 212.077 171.923 384 384 384v0zM528.64 960c-282.77 0-512-229.23-512-512s229.23-512 512-512c282.77 0 512 229.23 512 512v0c0 282.77-229.23 512-512 512v0 0zM464 666.88v-448l248.96 224-248.96 224z" />
<glyph unicode="&#xe932;" glyph-name="pointer" d="M393.6 366.080l178.56-430.080 168.96 70.4-179.84 433.92 292.48 5.76-600.32 513.92-61.44-787.84z" />
<glyph unicode="&#xe933;" glyph-name="popup" d="M72.923 443.539c0 55.332 44.855 100.187 100.187 100.187s100.187-44.855 100.187-100.187c0-55.332-44.855-100.187-100.187-100.187v0c-54.985 0.853-99.334 45.202-100.186 100.106l-0.001 0.081zM410.279 443.539c0 55.332 44.855 100.187 100.187 100.187s100.187-44.855 100.187-100.187c0-55.332-44.855-100.187-100.187-100.187v0c-54.985 0.853-99.334 45.202-100.186 100.106l-0.001 0.081zM747.635 443.539c0 55.332 44.855 100.187 100.187 100.187s100.187-44.855 100.187-100.187c0-55.332-44.855-100.187-100.187-100.187v0c-54.985 0.853-99.334 45.202-100.186 100.106l-0.001 0.081z" />
<glyph unicode="&#xe934;" glyph-name="refresh" d="M874.24 809.6l-109.44-109.44c65.197-64.72 105.555-154.385 105.555-253.476 0-197.232-159.888-357.12-357.12-357.12s-357.12 159.888-357.12 357.12c0 101.023 41.947 192.248 109.374 257.21l0.111 0.106-5.12 6.4 108.8-108.8 49.28 358.4-358.4-49.28 96-96c-96.186-93.197-155.888-223.561-155.888-367.87 0-282.77 229.23-512 512-512s512 229.23 512 512c0 141.42-57.336 269.449-150.031 362.108l-0.002 0.002z" />
<glyph unicode="&#xe935;" glyph-name="research-keyword" d="M0 550.4c-0.063-2.677-0.099-5.831-0.099-8.993 0-224.802 182.238-407.040 407.040-407.040 1.835 0 3.668 0.012 5.498 0.036l-0.278-0.003c2.358-0.053 5.137-0.083 7.923-0.083 89.883 0 172.431 31.405 237.27 83.841l-0.713-0.558 256-262.4c11.568-11.501 27.514-18.611 45.12-18.611s33.552 7.109 45.123 18.614l-0.003-0.003c11.994 12.415 19.385 29.344 19.385 48s-7.391 35.585-19.404 48.020l0.019-0.020-256 262.4c44.424 61.837 71.043 139.068 71.043 222.517 0 0.521-0.001 1.042-0.003 1.563v-0.080c0.039 2.127 0.062 4.636 0.062 7.15 0 226.043-180.565 409.913-405.326 415.241l-0.495 0.009c-1.909 0.032-4.162 0.051-6.419 0.051-224.095 0-405.76-181.665-405.76-405.76 0-1.368 0.007-2.734 0.020-4.099l-0.002 0.208zM412.16 268.8c-0.952-0.012-2.075-0.018-3.201-0.018-155.17 0-280.96 125.79-280.96 280.96 0 0.232 0 0.463 0.001 0.694v-0.036c7.387 150.681 131.353 270.053 283.2 270.053s275.814-119.373 283.174-269.395l0.026-0.659c-1.801-155.467-127.896-280.888-283.452-281.6h-0.068z" />
<glyph unicode="&#xe936;" glyph-name="search" d="M591.872 857.6c-180.205-4.27-324.657-151.366-324.657-332.2 0-2.011 0.018-4.018 0.053-6.021l-0.004 0.301c-0.001-0.352-0.002-0.769-0.002-1.186 0-66.759 21.295-128.544 57.462-178.933l-0.628 0.92-204.8-209.92c-9.595-9.932-15.508-23.476-15.508-38.4s5.913-28.468 15.523-38.416l-0.015 0.016c9.255-9.201 22.011-14.889 36.096-14.889s26.842 5.687 36.098 14.891l-0.002-0.002 204.8 209.92c51.301-41.502 117.339-66.627 189.246-66.627 2.229 0 4.451 0.024 6.668 0.072l-0.33-0.006c1.242-0.017 2.707-0.027 4.175-0.027 179.842 0 325.632 145.79 325.632 325.632 0 2.53-0.029 5.053-0.086 7.569l0.007-0.375c0.010 0.925 0.015 2.018 0.015 3.113 0 179.276-145.332 324.608-324.608 324.608-1.806 0-3.608-0.015-5.406-0.044l0.271 0.003zM591.872 304.64c-124.499 0.569-225.375 100.906-226.815 225.144l-0.001 0.136c0 125.408 101.664 227.072 227.072 227.072s227.072-101.664 227.072-227.072v0c0-0.155 0.001-0.338 0.001-0.521 0-124.136-100.632-224.768-224.768-224.768-0.72 0-1.44 0.003-2.158 0.010l0.11-0.001z" />
<glyph unicode="&#xe937;" glyph-name="shift-left" d="M0 448l441.6 512 108.8-128-332.8-384 332.8-384-108.8-128zM473.6 448l441.6 512 108.8-128-332.8-384 332.8-384-108.8-128z" />
<glyph unicode="&#xe938;" glyph-name="shift-right" d="M1024 448l-441.6-512-108.8 128 332.8 384-332.8 384 108.8 128zM550.4 448l-441.6-512-108.8 128 332.8 384-332.8 384 108.8 128z" />
<glyph unicode="&#xe939;" glyph-name="shopping" d="M135.558 740.571l-25.844 146.286h-109.714l127.756-489.082 720.213 46.811 29.745 295.985h-742.156zM335.482 256.853c0-60.594-49.121-109.714-109.714-109.714s-109.714 49.121-109.714 109.714c0 60.594 49.121 109.714 109.714 109.714s109.714-49.121 109.714-109.714zM794.819 256.853c0-60.594-49.121-109.714-109.714-109.714s-109.714 49.121-109.714 109.714c0 60.594 49.121 109.714 109.714 109.714s109.714-49.121 109.714-109.714z" />
<glyph unicode="&#xe93a;" glyph-name="status-added" d="M874.039 810.039c-92.654 92.654-220.654 149.961-362.039 149.961-282.77 0-512-229.23-512-512s229.23-512 512-512c141.385 0 269.385 57.308 362.039 149.961v0c92.654 92.654 149.961 220.654 149.961 362.039s-57.308 269.385-149.961 362.039v0zM579.882 148.413l-128.524-1.81v236.23h-236.23v130.334l238.040-1.81-1.81 238.040h126.714v-236.23h236.23v-126.714l-234.42-1.81z" />
<glyph unicode="&#xe93b;" glyph-name="status-changed" d="M512 960c-282.77 0-512-229.23-512-512s229.23-512 512-512c282.77 0 512 229.23 512 512v0c0 282.77-229.23 512-512 512v0zM232.96 256l279.040 384 279.040-384h-558.080z" />
<glyph unicode="&#xe93c;" glyph-name="status-delete" d="M512 960c-282.77 0-512-229.23-512-512s229.23-512 512-512c282.77 0 512 229.23 512 512v0c0 282.77-229.23 512-512 512v0zM810.88 368h-597.76v170.88h597.12v-170.88z" />
<glyph unicode="&#xe93d;" glyph-name="status-draft" d="M512 960c-282.77 0-512-229.23-512-512s229.23-512 512-512c282.77 0 512 229.23 512 512v0c0 282.77-229.23 512-512 512v0zM598.4 138.88h-172.8v147.84h173.44v-147.84zM598.4 352h-172.8v405.12h173.44v-404.48z" />
<glyph unicode="&#xe93e;" glyph-name="status-ok" d="M512 960c-282.77 0-512-229.23-512-512s229.23-512 512-512c282.77 0 512 229.23 512 512v0c0 282.77-229.23 512-512 512v0zM448 184.32l-279.040 270.080v8.96l72.96 58.24h14.080l185.6-169.6 307.2 333.44h8.96l87.040-38.4 6.4-10.88z" />
<glyph unicode="&#xe93f;" glyph-name="status-paused" d="M512 960c-282.77 0-512-229.23-512-512s229.23-512 512-512c282.77 0 512 229.23 512 512v0c0 282.77-229.23 512-512 512v0zM428.8 192h-172.8v512h172.8v-512zM768 192h-172.8v512h172.8v-512z" />
<glyph unicode="&#xe940;" glyph-name="status-processing" d="M512 857.6c-226.216 0-409.6-183.384-409.6-409.6s183.384-409.6 409.6-409.6c226.216 0 409.6 183.384 409.6 409.6v0c0 226.216-183.384 409.6-409.6 409.6v0zM333.312 299.008l-51.2-51.2v162.304h162.304l-51.2-51.2c27.576-36.257 70.742-59.425 119.32-59.425 68.74 0 126.645 46.392 144.112 109.574l0.248 1.051h85.504c-20.296-110.56-115.912-193.235-230.837-193.235-71.196 0-134.982 31.729-177.988 81.818l-0.262 0.313zM742.912 485.888h-163.328l51.2 51.2c-27.576 36.257-70.742 59.425-119.32 59.425-68.74 0-126.645-46.392-144.112-109.574l-0.248-1.051h-85.504c20.089 110.802 115.823 193.732 230.926 193.732 71.426 0 135.393-31.934 178.404-82.303l0.271-0.325 51.2 51.2v-162.304z" />
<glyph unicode="&#xe941;" glyph-name="status-suspended" d="M512 789.333c-188.513 0-341.333-152.82-341.333-341.333s152.82-341.333 341.333-341.333c188.513 0 341.333 152.82 341.333 341.333v0c0 188.513-152.82 341.333-341.333 341.333v0zM512 183.467c-0.989-0.013-2.156-0.021-3.325-0.021-145.391 0-263.253 117.863-263.253 263.253 0 59.909 20.012 115.144 53.715 159.385l-0.471-0.644 370.773-370.773c-42.98-31.985-97.109-51.206-155.726-51.206-0.603 0-1.205 0.002-1.806 0.006h0.093zM725.333 290.56l-370.773 370.773c45.313 37.979 104.246 61.046 168.566 61.046 145.391 0 263.253-117.863 263.253-263.253 0-64.32-23.067-123.253-61.38-168.976l0.335 0.41z" />
<glyph unicode="&#xe942;" glyph-name="triangle-down" d="M0 732.444v0h1024l-512-568.889z" />
<glyph unicode="&#xe943;" glyph-name="triangle-left" d="M796.444 960v-1024l-568.889 512 568.889 512z" />
<glyph unicode="&#xe944;" glyph-name="triangle-right" d="M227.556 960v0-1024l568.889 512z" />
<glyph unicode="&#xe945;" glyph-name="ucm" d="M102.4 857.6h313.344v-340.992h-313.344v340.992zM608.256 857.6h313.344v-340.992h-313.344v340.992zM102.4 379.392h313.344v-340.992h-313.344v340.992zM608.256 379.392h313.344v-340.992h-313.344v340.992z" />
<glyph unicode="&#xe946;" glyph-name="undo" d="M914.286 333.897c-1.244 220.424-180.219 398.631-400.817 398.631-0.517 0-1.033-0.001-1.549-0.003h-57.703v227.474l-344.503-341.577 344.503-340.846v227.474h57.783c157.139 0 284.526-127.387 284.526-284.526s-127.387-284.526-284.526-284.526v0c0.438-0.002 0.956-0.003 1.474-0.003 220.341 0 399.156 177.792 400.811 397.743l0.001 0.157z" />
<glyph unicode="&#xe947;" glyph-name="user" d="M1024 448c0-282.77-229.23-512-512-512s-512 229.23-512 512c0 282.77 229.23 512 512 512s512-229.23 512-512z" />
<glyph unicode="&#xe948;" glyph-name="visit-website" d="M853.12 446.080l-600.32 513.92-60.8-787.84 201.6 193.92 178.56-430.080 168.96 70.4-179.84 433.92 291.84 5.76z" />
<glyph unicode="&#xe949;" glyph-name="visits" d="M597.693-60.766c107.789-28.564 121.802 132.042 121.802 132.042l-149.288 31.798c-23.714-59.284-42.038-144.977 27.486-163.84zM727.579 570.88c-24.792 8.623-117.491 30.72-154.678-132.581-4.949-29.060-7.777-62.534-7.777-96.669 0-58.656 8.352-115.362 23.93-168.993l-1.063 4.272 150.905-32.337c27.8 48.269 52.158 104.167 70.141 162.852l1.539 5.838c16.168 80.842 15.091 222.585-82.998 257.617zM256 459.318s0-161.684 107.789-143.899c71.141 11.318 61.979 97.011 44.194 161.684zM301.811 957.305c-102.939-24.792-119.107-165.457-113.179-250.072 12.887-65.534 31.518-123.457 55.972-178.209l-2.078 5.207 153.061 16.168c29.649 68.842 46.891 148.983 46.891 233.15 0 8.984-0.196 17.922-0.585 26.811l0.044-1.266c-20.48 166.535-114.796 154.139-140.126 148.211z" />
<glyph unicode="&#xe94a;" glyph-name="warning" d="M512 896l-512-915.2h1024zM592 76.8h-160v96h160v-96zM432 246.4v320h160v-320h-160z" />
<glyph unicode="&#xe94b;" glyph-name="web-conv" d="M292.744 692.555c-60.235 25.299-60.235 34.334-60.235 40.358s19.878 16.866 31.322 16.866c24.913-0.006 48.203-6.948 68.046-19.001l46.401-26.175 50.598 134.927-33.732 18.071c-20.818 12.406-45.051 21.823-70.847 26.872l-1.436 0.234v75.294h-136.734v-83.727c-64.551-21.668-110.231-81.612-110.231-152.226 0-0.059 0-0.119 0-0.178v0.009c0-109.628 104.809-150.588 148.781-167.454 53.609-21.685 53.609-36.141 53.609-43.972 0-18.673-22.287-25.299-40.96-25.299-29.544 0.186-57.010 8.919-80.096 23.846l0.586-0.355-48.791 31.925-48.791-136.132 28.311-19.878c26.242-17.628 57.312-30.317 90.778-35.949l1.382-0.192v-77.704h137.939v84.932c67.671 22.303 115.654 84.949 115.654 158.803 0 0.289-0.001 0.577-0.002 0.865v-0.044c-3.797 84.289-62.040 153.986-140.226 174.981l-1.327 0.303zM963.765 306.447l-438.513 372.856-44.574-571.633 147.576 140.951 130.108-312.621 61.44 25.299 62.042 25.299-131.313 315.633 213.233 4.216z" />
<glyph unicode="&#xe94c;" glyph-name="whatsnew" d="M1024 390.4c0 0-6.4 32-179.2 83.2v6.4c166.4 83.2 160 121.6 160 121.6s-19.2 32-198.4 6.4l-6.4 6.4c108.8 140.8 96 172.8 96 172.8s-25.6 25.6-179.2-76.8c0 0-6.4 6.4-12.8 6.4 44.8 179.2 19.2 198.4 19.2 198.4s-32 6.4-128-140.8h-19.2c-32 179.2-64 185.6-64 185.6v0c0 0-32-6.4-64-185.6h-12.8c-102.4 147.2-134.4 140.8-134.4 140.8s-25.6-25.6 19.2-192c-6.4 0-6.4-6.4-12.8-6.4-147.2 96-179.2 70.4-179.2 70.4s-12.8-32 102.4-172.8l-6.4-6.4c-185.6 25.6-198.4-6.4-198.4-6.4s-6.4-32 153.6-121.6v-6.4c-172.8-51.2-179.2-83.2-179.2-83.2s12.8-32 198.4-44.8v-6.4c-140.8-121.6-128-153.6-128-153.6s25.6-25.6 198.4 38.4l6.4-6.4c-83.2-172.8-64-198.4-64-198.4s32-19.2 172.8 121.6v0c-12.8-185.6 19.2-204.8 19.2-204.8s38.4 0 102.4 179.2h12.8c70.4-179.2 102.4-179.2 102.4-179.2s32 19.2 25.6 204.8h6.4c134.4-134.4 172.8-121.6 172.8-121.6s25.6 25.6-64 198.4l6.4 6.4c179.2-70.4 198.4-38.4 198.4-38.4s12.8 32-134.4 153.6v6.4c179.2 6.4 192 44.8 192 44.8zM588.8 249.6h-153.6v236.8h153.6v-236.8zM588.8 588.8h-153.6v83.2h153.6v-83.2z" />
</font>
</defs>
</svg>
